<?xml version="1.0" encoding="UTF-8"?>
<svg width="18px" height="18px" viewBox="0 0 18 18" version="1.1" xmlns="http://www.w3.org/2000/svg" xmlns:xlink="http://www.w3.org/1999/xlink">
    <!-- Generator: Sketch 54.1 (76490) - https://sketchapp.com -->
    <title>hint</title>
    <desc>Created with Sketch.</desc>
    <g id="Page-1" stroke="none" stroke-width="1" fill="none" fill-rule="evenodd">
        <g id="icons" fill="#178BF4" fill-rule="nonzero">
            <path d="M9.5625,2.27322441 C12.8368373,2.54464709 15.4554155,5.16310016 15.7267862,8.4375 L17.4583333,8.4375 C17.7573333,8.4375 18,8.6895 18,9 C18,9.3105 17.7573333,9.5625 17.4583333,9.5625 L15.726783,9.5625 C15.4553953,12.8366831 12.8368246,15.4553287 9.5625,15.7267736 L9.5625,17.4583333 C9.5625,17.7573333 9.31021875,18 9,18 C8.6895,18 8.4375,17.7573333 8.4375,17.4583333 L8.4375,15.7267951 C5.16327569,15.4554785 2.54459036,12.8369784 2.27321377,9.5625 L0.541666667,9.5625 C0.242666667,9.5625 0,9.3105 0,9 C0,8.6895 0.242666667,8.4375 0.541666667,8.4375 L2.27321377,8.4375 C2.54459036,5.16302164 5.16327569,2.54452151 8.4375,2.27320489 L8.4375,0.541666667 C8.4375,0.242666667 8.6895,0 9,0 C9.3105,0 9.5625,0.242666667 9.5625,0.541666667 L9.5625,2.27322441 Z M9.5625,3.37956029 L9.5625,4.33333333 C9.5625,4.63233333 9.31021875,4.875 9,4.875 C8.6895,4.875 8.4375,4.63233333 8.4375,4.33333333 L8.4375,3.37954204 C5.77117617,3.64430412 3.64446687,5.77110162 3.37977968,8.4375 L4.33333333,8.4375 C4.63233333,8.4375 4.875,8.6895 4.875,9 C4.875,9.3105 4.63233333,9.5625 4.33333333,9.5625 L3.37983882,9.5625 C3.64478351,12.2284339 5.77137466,14.3551349 8.4375,14.6199041 L8.4375,13.6666667 C8.4375,13.3673958 8.6895,13.125 9,13.125 C9.3105,13.125 9.5625,13.3673958 9.5625,13.6666667 L9.5625,14.6198858 C12.2289383,14.3550372 14.3552513,12.2283727 14.620164,9.5625 L13.6666667,9.5625 C13.3676667,9.5625 13.125,9.3105 13.125,9 C13.125,8.6895 13.3676667,8.4375 13.6666667,8.4375 L14.6202231,8.4375 C14.3555679,5.77116286 12.2291368,3.64440181 9.5625,3.37956029 Z" id="hint"></path>
        </g>
    </g>
</svg>