<?xml version="1.0" encoding="UTF-8"?>
<svg width="18px" height="18px" viewBox="0 0 18 18" version="1.1" xmlns="http://www.w3.org/2000/svg" xmlns:xlink="http://www.w3.org/1999/xlink">
    <!-- Generator: Sketch 54.1 (76490) - https://sketchapp.com -->
    <title>link</title>
    <desc>Created with Sketch.</desc>
    <g id="Page-1" stroke="none" stroke-width="1" fill="none" fill-rule="evenodd">
        <g id="icons" transform="translate(-18.000000, 0.000000)" fill="#178BF4" fill-rule="nonzero">
            <path d="M26.8795636,13.2774545 C27.1351636,13.0218545 27.5491636,13.0218545 27.8047636,13.2774545 C28.0603636,13.5330545 28.0603636,13.9473818 27.8047636,14.2029818 L25.2592364,16.7485091 C24.4587273,17.5493455 23.3901818,17.9905091 22.2509455,17.9905091 C21.1120364,17.9905091 20.0434909,17.5493455 19.2429818,16.7485091 C18.4421455,15.948 18.0009818,14.8794545 18.0009818,13.7405455 C18.0009818,12.6013091 18.4421455,11.5327636 19.2426545,10.7322545 L22.9454182,7.02916364 C24.6046909,5.37054545 27.3037091,5.37087273 28.962,7.02916364 C29.2176,7.28476364 29.2176,7.69909091 28.962,7.95469091 C28.7064,8.21029091 28.2920727,8.21029091 28.0364727,7.95469091 C27.4830545,7.4016 26.7434182,7.09658182 25.9540364,7.09658182 C25.1643273,7.09658182 24.4246909,7.4016 23.8712727,7.95469091 L20.1685091,11.6574545 C19.0201091,12.8058545 19.0201091,14.6745818 20.1685091,15.8229818 C20.7219273,16.3764 21.4618909,16.6814182 22.2512727,16.6814182 C23.0409818,16.6814182 23.7806182,16.3764 24.3340364,15.8229818 L26.8795636,13.2774545 Z M34.7475273,1.24396364 C35.5483636,2.0448 35.9895273,3.11301818 35.9895273,4.25258182 C35.9895273,5.39181818 35.5483636,6.46036364 34.7475273,7.26087273 L30.8133818,11.1950182 C29.9840727,12.0243273 28.8945818,12.4389818 27.8050909,12.4389818 C26.7156,12.4389818 25.6261091,12.0243273 24.7968,11.1950182 C24.5412,10.9397455 24.5412,10.5250909 24.7968,10.2694909 C25.0524,10.0138909 25.4667273,10.0138909 25.7223273,10.2694909 C26.8710545,11.4175636 28.7394545,11.4175636 29.8881818,10.2694909 L33.8216727,6.33501818 C34.3750909,5.7816 34.6801091,5.04196364 34.6801091,4.25258182 C34.6801091,3.46287273 34.3750909,2.72323636 33.8216727,2.16981818 C33.2682545,1.6164 32.5286182,1.31138182 31.7389091,1.31138182 C30.9495273,1.31138182 30.2098909,1.6164 29.6564727,2.16949091 L26.6481818,5.17778182 C26.3925818,5.43338182 25.9782545,5.43338182 25.7226545,5.17778182 C25.4670545,4.92218182 25.4670545,4.50785455 25.7226545,4.25225455 L28.7309455,1.24396364 C30.3898909,-0.414 33.0889091,-0.414654545 34.7475273,1.24396364 Z" id="link"></path>
        </g>
    </g>
</svg>