<svg id="Capa_1" enable-background="new 0 0 512 512" height="512" viewBox="0 0 512 512" width="512" xmlns="http://www.w3.org/2000/svg"><path d="m512 256c0 140.7-115.3 256-256 256s-256-115.3-256-256 115.3-256 256-256 256 115.3 256 256z" fill="#ffda2d"/><path d="m512 256c0 140.7-115.3 256-256 256v-512c140.7 0 256 115.3 256 256z" fill="#fdbf00"/><path d="m169.281 245.688c-3.501 0-7.002-1.216-9.829-3.662-48.892-41.36-68.452-57.178-68.452-86.675 0-27.671 20.493-49.351 46.641-49.351 13.74 0 24.141 5.815 31.641 13.418 7.5-7.603 17.9-13.418 31.641-13.418 26.147 0 46.641 21.68 46.641 49.351 0 9.952 3.739 27.933-68.452 86.675-2.829 2.446-6.33 3.662-9.831 3.662z" fill="#ff641a"/><path d="m342.719 245.688c-3.501 0-7.002-1.216-9.829-3.662-48.892-41.359-68.452-57.178-68.452-86.675 0-27.671 20.493-49.351 46.641-49.351 13.74 0 24.141 5.815 31.641 13.418 7.5-7.603 17.9-13.418 31.641-13.418 26.146 0 46.639 21.68 46.639 49.351 0 32.536-27.928 52.272-68.452 86.675-2.827 2.446-6.328 3.662-9.829 3.662z" fill="#f03800"/><path d="m417.7 288.999c-8.701 42.301-33.9 78.001-67.5 101.701h-188.4c-33.6-23.7-58.799-59.4-67.5-101.701-.899-4.499.3-9 3.001-12.599 2.999-3.3 7.2-5.4 11.699-5.4h294.001c4.499 0 8.699 2.1 11.699 5.4 2.7 3.6 3.899 8.1 3 12.599z" fill="#f03800"/><path d="m417.7 288.999c-8.701 42.301-33.9 78.001-67.5 101.701h-94.2v-119.7h147.001c4.499 0 8.699 2.1 11.699 5.4 2.7 3.6 3.899 8.1 3 12.599z" fill="#cd0000"/><path d="m350.2 390.7c-27 18.9-59.401 30.3-94.2 30.3s-67.2-11.4-94.2-30.3c16.8-35.4 52.5-59.7 94.2-59.7s77.401 24.3 94.2 59.7z" fill="#ff641a"/><path d="m350.2 390.7c-27 18.9-59.401 30.3-94.2 30.3v-90c41.7 0 77.401 24.3 94.2 59.7z" fill="#f03800"/></svg>