<svg id="Capa_1" enable-background="new 0 0 512 512" height="512" viewBox="0 0 512 512" width="512" xmlns="http://www.w3.org/2000/svg"><path d="m512 256c0 140.7-115.3 256-256 256s-256-115.3-256-256 115.3-256 256-256 256 115.3 256 256z" fill="#ffda2d"/><path d="m512 256c0 140.7-115.3 256-256 256v-512c140.7 0 256 115.3 256 256z" fill="#fdbf00"/><path d="m218.998 173.002c-28.359-28.389-77.637-28.389-105.996 0-5.859 5.859-15.352 5.859-21.211 0-5.859-5.845-5.859-15.352 0-21.211 39.668-39.697 108.75-39.697 148.418 0 5.859 5.859 5.859 15.366 0 21.211-5.859 5.859-15.351 5.859-21.211 0z" fill="#725d57"/><path d="m398.998 173.002c-28.359-28.389-77.637-28.389-105.996 0-5.859 5.859-15.352 5.859-21.211 0-5.859-5.845-5.859-15.352 0-21.211 39.668-39.697 108.75-39.697 148.418 0 5.859 5.859 5.859 15.366 0 21.211-5.859 5.859-15.351 5.859-21.211 0z" fill="#53433f"/><path d="m196 271c-8.291 0-15-6.709-15-15v-15h-45c-8.291 0-15-6.709-15-15s6.709-15 15-15h60c8.291 0 15 6.709 15 15v30c0 8.291-6.709 15-15 15z" fill="#725d57"/><path d="m376 271c-8.291 0-15-6.709-15-15v-15h-45c-8.291 0-15-6.709-15-15s6.709-15 15-15h60c8.291 0 15 6.709 15 15v30c0 8.291-6.709 15-15 15z" fill="#53433f"/><path d="m256 301c-57.9 0-105 47.1-105 105 0 4.799 2.401 9.3 6.301 12.299 3.9 2.701 9 3.3 13.499 1.8 27.601-9.3 56.4-13.799 85.201-13.799s57.599 4.499 85.201 13.799c4.499 1.5 9.598.901 13.499-1.8 3.9-2.999 6.301-7.5 6.301-12.299-.002-57.9-47.102-105-105.002-105z" fill="#ff641a"/><path d="m361 406c0 4.799-2.401 9.3-6.301 12.299-3.9 2.701-9 3.3-13.499 1.8-27.601-9.3-56.4-13.799-85.201-13.799v-105.3c57.901 0 105.001 47.1 105.001 105z" fill="#f03800"/></svg>