<svg id="Capa_1" enable-background="new 0 0 512 512" height="512" viewBox="0 0 512 512" width="512" xmlns="http://www.w3.org/2000/svg"><path d="m512 257c0 140.7-115.3 255-256 255s-256-114.3-256-255 115.3-257 256-257 256 116.3 256 257z" fill="#ffda2d"/><path d="m512 257c0 140.7-115.3 255-256 255v-512c140.7 0 256 116.3 256 257z" fill="#fdbf00"/><path d="m296.499 267.499c-5.7 6-15.298 6-20.999 0l-12.601-12.599c-2.1-2.1-4.499-4.2-6.899-6-23.699-18.6-56.1-22.2-83.401-8.399-7.2 3.6-16.199.599-20.099-6.901-3.6-7.2-.599-16.199 6.901-20.099 31.199-15.3 66.899-15 96.599.3 10.201 5.099 19.501 11.7 27.9 20.099l12.599 12.601c6.001 5.7 6.001 15.298 0 20.998z" fill="#725d57"/><path d="m196 152c-24.814 0-45-20.186-45-45s20.186-45 45-45 45 20.186 45 45-20.186 45-45 45z" fill="#725d57"/><path d="m346 197c-24.814 0-45-20.186-45-45s20.186-45 45-45 45 20.186 45 45-20.186 45-45 45z" fill="#53433f"/><path d="m264.401 389.599c-2.401 2.401-5.402 4.2-8.401 5.4-7.8 3.001-16.8 1.201-23.401-5.4l-27.599-27.599h-69c-8.401 0-15 6.599-15 15s6.599 15 15 15h52.5c12.299 0 22.5 10.201 22.5 22.5s-10.201 22.5-22.5 22.5h-52.5c-8.401 0-15 6.599-15 15s6.599 15 15 15h22.5c12.299 0 22.5 10.201 22.5 22.5s-10.201 22.5-22.5 22.5h-57.299c-55.201 0-101.201-45-101.201-100.201 0-38.399 23.2-73.2 59.2-91.199 20.7-10.199 31.8-27.001 31.8-48.6v-15c0-8.401 6.599-15 15-15 24.901 0 45 20.099 45 45v30h60c7.8 0 15.601 3.3 21.301 8.699 11.699 11.7 18.9 19.2 23.699 23.701 9.6 9.6 8.699 8.399 10.201 10.8 7.2 9 5.998 21.599-1.8 29.399z" fill="#fff7cc"/><path d="m296.499 267.499c-5.7 6-15.298 6-20.999 0l-12.601-12.599c-2.1-2.1-4.499-4.2-6.899-6v-35.1c10.201 5.099 19.501 11.7 27.9 20.099l12.599 12.601c6.001 5.701 6.001 15.299 0 20.999z" fill="#53433f"/></svg>