<?xml version="1.0" encoding="UTF-8"?>
<svg width="128px" height="128px" viewBox="0 0 128 128" version="1.1" xmlns="http://www.w3.org/2000/svg" xmlns:xlink="http://www.w3.org/1999/xlink">
    <!-- Generator: Sketch 54.1 (76490) - https://sketchapp.com -->
    <title>Artboard</title>
    <desc>Created with Sketch.</desc>
    <g id="Artboard" stroke="none" stroke-width="1" fill="none" fill-rule="evenodd">
        <g id="Group" transform="translate(4.000000, 12.000000)" fill-rule="nonzero">
            <path d="M32.8421621,63.5791616 L45.2155142,17.3999623 L36.0785513,17.3999623 C34.2914419,17.3999623 32.8421621,18.8492422 32.8421621,20.6363516 L32.8421621,63.5791616 Z" id="Path" fill="#FF5D5D"></path>
            <polygon id="Path" fill="#FF5D5D" points="32.8421621 71.0571889 32.8421621 87.1311024 92.8284291 87.1311024"></polygon>
            <path d="M57.3947743,92.0529774 L67.7347402,87.9266958 L32.3724966,87.1311024 L24.4037466,87.1311024 L24.4037466,34.0607291 L12.7124623,37.1936635 C10.9857779,37.6569205 9.96130272,39.4312123 10.423644,41.157897 L26.2943105,100.386107 L57.3947743,92.0529774 Z" id="Path" fill="#FFB954"></path>
            <path d="M62.4146108,13.001769 C60.6879263,12.5394277 58.9136342,13.5639029 58.4503775,15.2905873 L42.7930287,73.7241202 L96.7844227,88.1912832 C98.5111074,88.6536244 100.286315,87.6291493 100.748656,85.9024648 L116.406005,27.4689322 L62.4146108,13.001769 Z" id="Path" fill="#36D28F"></path>
            <path d="M107.574828,60.4297475 C106.324218,60.0946646 105.038817,60.8362416 104.703734,62.0868521 L104.682677,62.1646719 C104.347594,63.4143666 105.090087,64.699767 106.339782,65.0348501 C106.543029,65.0897818 106.747191,65.1154166 106.948607,65.1154166 C107.983153,65.1154166 108.929809,64.4251088 109.210876,63.3777455 L109.231933,63.2999258 C109.567016,62.050231 108.824523,60.7648306 107.574828,60.4297475 L107.574828,60.4297475 Z" id="Path" fill="#000000"></path>
            <path d="M115.864013,16.9879751 L53.17694,0.190794912 C50.2051381,-0.605713994 47.1390371,1.16491601 46.3425282,4.13671788 L43.8568716,13.4155873 L27.6410513,13.4155873 C24.563964,13.4155873 22.0609121,15.9195547 22.0609121,18.9957266 L22.0609121,25.2048329 L4.13671788,30.0076894 C1.16491601,30.8041983 -0.605713994,33.8702994 0.190794912,36.8430165 L16.9879751,99.5291738 C17.6553945,102.019408 19.9158315,103.665526 22.3795156,103.665526 C22.8565053,103.665526 23.3408194,103.604186 23.8223867,103.475097 L76.0724478,89.4748524 L92.5198965,89.4748524 L96.1783437,90.4544668 C96.6589955,90.5835561 97.1469718,90.6476431 97.6322012,90.6476431 C98.598998,90.6476431 99.5529774,90.3940421 100.412658,89.8978262 C101.703551,89.1525868 102.627318,87.9486685 103.012755,86.5094595 L106.803954,72.3608998 C107.139037,71.1112051 106.39746,69.8258047 105.14685,69.4907218 C103.896239,69.1556387 102.610839,69.8972157 102.275756,71.1478262 L98.4845572,85.2954701 C98.4021596,85.6067494 98.1888418,85.7687977 98.0689076,85.8374623 C97.9498892,85.9070424 97.7026967,86.0095815 97.3914174,85.9271841 L34.7052603,69.1300039 C34.2291861,69.0027455 33.9462882,68.5120229 34.0735463,68.0368641 L50.8707266,5.34979155 C50.9979849,4.8746328 51.489623,4.59173491 51.9638663,4.71899304 L114.650023,21.5152578 C115.126098,21.6425162 115.408996,22.1332388 115.281737,22.609313 L107.164672,52.9022818 C106.829589,54.152892 107.571166,55.4373769 108.821776,55.7724601 C110.071471,56.107543 111.357787,55.3659657 111.69287,54.1153555 L119.80902,23.8223867 C120.605529,20.8505851 118.835814,17.7844838 115.864013,16.9879751 Z M22.609313,98.9468984 C22.1332388,99.0741568 21.6425162,98.7912587 21.5152578,98.3161001 L4.71899304,35.6290273 C4.63568022,35.3186635 4.73913476,35.0714712 4.80779937,34.9524526 C4.87737944,34.8325187 5.03942772,34.6192006 5.34979155,34.5358876 L22.0599966,30.0580435 L22.0599966,83.8937977 C22.0599966,86.9708853 24.563964,89.4748524 27.6410513,89.4748524 L57.9614858,89.4748524 L22.609313,98.9468984 Z M29.5462637,66.8237905 C28.7497548,69.7955923 30.5203848,72.8616933 33.4921866,73.6582023 L75.026,84.7864369 L27.6410513,84.7864369 C27.1484975,84.7864369 26.7484121,84.3863516 26.7484121,83.8937977 L26.7484121,18.996642 C26.7484121,18.5040884 27.1484975,18.104003 27.6410513,18.104003 L42.6007681,18.104003 L29.5462637,66.8237905 Z" id="Shape" fill="#000000"></path>
            <path d="M61.6904288,15.4691152 L61.7270499,15.3336172 C62.0621328,14.0839224 61.3196401,12.798522 60.0690298,12.4634389 C58.8184194,12.1292715 57.5339344,12.8708485 57.1988516,14.121459 L57.1631459,14.256957 C56.828063,15.5075673 57.5705555,16.7929679 58.8202505,17.1271353 C59.0234975,17.1820669 59.2276601,17.2077017 59.4281607,17.2077017 C60.4627065,17.2077017 61.4102773,16.5164785 61.6904288,15.4691152 L61.6904288,15.4691152 Z" id="Path" fill="#000000"></path>
            <path d="M57.6419668,21.522582 C56.3913563,21.1865834 55.1068716,21.9290762 54.7717885,23.1796866 L45.7529288,56.8390494 C45.4178457,58.0896596 46.1594227,59.37506 47.4100332,59.7101431 C47.6132804,59.7641593 47.8174428,59.7907095 48.0179433,59.7907095 C49.0534048,59.7907095 50.00006,59.0994863 50.2802115,58.0530385 L59.2999869,24.3927603 C59.6341543,23.1430655 58.8925773,21.8576649 57.6419668,21.522582 Z" id="Path" fill="#000000"></path>
        </g>
    </g>
</svg>