<?xml version="1.0" encoding="UTF-8"?>
<svg width="260px" height="80px" viewBox="0 0 260 80" version="1.1" xmlns="http://www.w3.org/2000/svg" xmlns:xlink="http://www.w3.org/1999/xlink">
    <!-- Generator: Sketch 54.1 (76490) - https://sketchapp.com -->
    <title>logo-dark</title>
    <desc>Created with Sketch.</desc>
    <g id="logo-dark" stroke="none" stroke-width="1" fill="none" fill-rule="evenodd">
        <text id="JS" font-family="OpenSans-Bold, Open Sans" font-size="24" font-weight="bold" fill="#178BF5">
            <tspan x="227.417969" y="27">JS</tspan>
        </text>
        <path d="M42.5022857,35.7276923 C42.4150714,35.7276923 42.3255,35.7130769 42.2390714,35.6830769 C41.8297143,35.54 41.616,35.1007692 41.7621429,34.7007692 C41.9852857,34.0853846 42.2595,33.4815385 42.5761429,32.9061538 C42.782,32.5330769 43.2589286,32.3907692 43.64,32.5946154 C44.0218571,32.7961538 44.1648571,33.2623077 43.959,33.6361538 C43.6800714,34.1423077 43.4388571,34.6746154 43.2424286,35.2161538 C43.1285,35.5315385 42.8252143,35.7276923 42.5022857,35.7276923 Z M45.7661429,30.8815385 C45.5547857,30.8815385 45.345,30.7992308 45.1902143,30.6361538 C44.8947857,30.3246154 44.9136429,29.8376923 45.2318571,29.5484615 C46.7962143,28.1269231 48.7070714,27.0884615 50.757,26.5438462 C51.1765714,26.43 51.6071429,26.6753846 51.7210714,27.0846154 C51.835,27.4946154 51.5875,27.9169231 51.1687143,28.0284615 C49.3631429,28.5084615 47.6801429,29.4238462 46.3012143,30.6769231 C46.1495714,30.8138462 45.9578571,30.8815385 45.7661429,30.8815385 Z" id="shadow" fill-opacity="0.25" fill="#FFFFFF" fill-rule="nonzero"></path>
        <path d="M53.9996327,57 C44.0748556,57 36,48.9257143 36,39 C36,29.0742857 44.0748556,21 53.9996327,21 C63.9251444,21 72,29.0742857 72,39 C72,48.9249796 63.9251444,57 53.9996327,57 Z M53.9996327,23.9380408 C45.6948226,23.9380408 38.9387155,30.6942857 38.9387155,38.9992653 C38.9387155,47.3035102 45.6948226,54.0604898 53.9996327,54.0604898 C62.3059121,54.0604898 69.0612845,47.3035102 69.0612845,38.9992653 C69.0612845,30.6942857 62.3059121,23.9380408 53.9996327,23.9380408 Z M75.5555556,42 L65.4444444,42 C64.6471111,42 64,41.328 64,40.5 C64,39.672 64.6471111,39 65.4444444,39 L75.5555556,39 C76.3528889,39 77,39.672 77,40.5 C77,41.328 76.3528889,42 75.5555556,42 Z M40.5555556,42 L30.4444444,42 C29.6471111,42 29,41.328 29,40.5 C29,39.672 29.6471111,39 30.4444444,39 L40.5555556,39 C41.3528889,39 42,39.672 42,40.5 C42,41.328 41.3528889,42 40.5555556,42 Z M54.5,64 C53.672,64 53,63.3528889 53,62.5555556 L53,52.4444444 C53,51.6463889 53.672,51 54.5,51 C55.328,51 56,51.6463889 56,52.4444444 L56,62.5555556 C56,63.3528889 55.32725,64 54.5,64 Z M54.5,29 C53.672,29 53,28.3528889 53,27.5555556 L53,17.4444444 C53,16.6471111 53.672,16 54.5,16 C55.328,16 56,16.6471111 56,17.4444444 L56,27.5555556 C56,28.3528889 55.32725,29 54.5,29 Z" id="shape" fill="#178BF5" fill-rule="nonzero"></path>
        <text id="t-uring" font-family="OpenSans-Light, Open Sans Light" font-size="64" font-weight="normal" fill="#444444">
            <tspan x="10.671875" y="56">t</tspan>
            <tspan x="32.109375" y="56" letter-spacing="-2">   </tspan>
            <tspan x="75.984375" y="56">uring</tspan>
        </text>
    </g>
</svg>